Coordinates
version=1
nRows=11
nColumns=40
inDegrees=yes

Units are S.I. units (second, meters, Newtons, ...)
Angles are in degrees.

endheader
time	pelvis_tilt	pelvis_list	pelvis_rotation	pelvis_tx	pelvis_ty	pelvis_tz	hip_flexion_r	hip_adduction_r	hip_rotation_r	knee_angle_r	knee_angle_r_beta	ankle_angle_r	subtalar_angle_r	mtp_angle_r	hip_flexion_l	hip_adduction_l	hip_rotation_l	knee_angle_l	knee_angle_l_beta	ankle_angle_l	subtalar_angle_l	mtp_angle_l	lumbar_extension	lumbar_bending	lumbar_rotation	arm_flex_r	arm_add_r	arm_rot_r	elbow_flex_r	pro_sup_r	wrist_flex_r	wrist_dev_r	arm_flex_l	arm_add_l	arm_rot_l	elbow_flex_l	pro_sup_l	wrist_flex_l	wrist_dev_l
     46.83664286	     -4.99892327	     -6.14334910	      5.11088469	      1.08298124	      0.90615799	      0.46849823	     -5.25458107	      5.68039098	    -16.04801488	      9.64129540	      9.64129540	     21.08942109	      6.53640705	     -2.55629898	     35.30317207	     -6.83947422	     -3.87077978	     18.59158715	     18.59158715	      1.62912696	     -9.92960322	      5.48647639	     -7.63355509	      6.35864523	      3.62193774	     55.77791034	    -16.78602021	     -3.58146231	     77.88898880	     44.76309169	      0.00000000	      0.00000000	    -24.13427198	     -6.52136862	      5.72287987	     21.14853365	     44.88778712	      0.00000000	      0.00000000
     46.84828571	     -5.12823609	     -6.07344828	      4.97006194	      1.08479827	      0.90452372	      0.46643496	     -5.53186329	      5.36874909	    -15.74287992	     10.41965591	     10.41965591	     21.65056943	      6.23735689	     -2.29549659	     35.45320626	     -6.59178488	     -3.15102998	     20.08500315	     20.08500315	      0.53275443	    -12.05959400	      5.48712317	     -7.38409776	      6.32998403	      3.37458005	     55.97540752	    -16.38305931	     -3.37054862	     80.32615174	     44.68585413	      0.00000000	      0.00000000	    -24.76982727	     -6.26951914	      5.80049284	     21.23366384	     44.86751514	      0.00000000	      0.00000000
     46.85992857	     -5.25351779	     -5.76583914	      4.71258954	      1.08682414	      0.90339886	      0.46432058	     -5.80003104	      4.75763076	    -15.37733673	     11.27916986	     11.27916986	     22.20101182	      5.90538181	     -1.70303388	     35.35626551	     -6.16724113	     -2.66309018	     21.24019739	     21.24019739	     -0.50958276	    -14.06488099	      5.50949281	     -7.16011541	      5.97117865	      3.62608270	     55.47060039	    -16.69034271	     -3.31175118	     83.59892747	     44.59530962	      0.00000000	      0.00000000	    -25.06229132	     -6.24761664	      5.85504315	     21.52856178	     44.87103038	      0.00000000	      0.00000000
     46.87157143	     -5.25419574	     -5.51348293	      4.46598036	      1.08892647	      0.90274951	      0.46217264	     -6.17532847	      4.20311672	    -15.04157582	     12.16716950	     12.16716950	     22.61855026	      5.66748703	     -1.19161607	     35.23570573	     -5.90929302	     -2.50363972	     22.57944971	     22.57944971	     -0.87414179	    -15.20312289	      5.63029179	     -7.10579898	      5.69433413	      4.26532858	     54.75079588	    -17.40360247	     -3.60405549	     86.76939128	     44.54053451	      0.00000000	      0.00000000	    -24.81963372	     -6.34602459	      6.04648133	     21.48764124	     44.88865019	      0.00000000	      0.00000000
     46.88321429	     -5.25309692	     -5.30857276	      4.24664666	      1.09095411	      0.90235065	      0.45987692	     -6.37456512	      3.64030348	    -14.74342917	     13.34033997	     13.34033997	     22.76801451	      5.31998050	     -1.43114482	     35.16509861	     -5.70199382	     -2.37801529	     23.96765566	     23.96765566	     -0.85029776	    -16.06188267	      5.62252820	     -6.98754475	      5.51633249	      4.05081010	     54.66405321	    -17.02271676	     -3.49565241	     87.97582961	     44.50654088	      0.00000000	      0.00000000	    -24.75371570	     -6.13451346	      6.12719615	     21.38995797	     44.88645624	      0.00000000	      0.00000000
     46.89485714	     -5.32277621	     -5.00758859	      4.00792897	      1.09285222	      0.90240888	      0.45748145	     -6.27430764	      2.92085902	    -14.29501860	     14.86875039	     14.86875039	     22.51001514	      4.53082487	     -2.46314397	     35.07326703	     -5.36519009	     -2.22859865	     25.21967396	     25.21967396	     -0.14840531	    -16.76552923	      6.79688888	     -6.91186530	      5.22044412	      4.60181607	     53.38833712	    -17.64981250	     -3.77105098	     91.47242844	     44.44221431	      0.00000000	      0.00000000	    -24.05993287	     -6.19554553	      6.21887483	     21.16898624	     44.93905747	      0.00000000	      0.00000000
     46.90650000	     -5.22468022	     -4.77310817	      3.79995317	      1.09472440	      0.90297166	      0.45492492	     -6.13739517	      2.19020347	    -14.03687649	     16.79463750	     16.79463750	     22.29605622	      4.00979020	     -3.07701684	     34.75371384	     -5.13140558	     -2.21343420	     26.36358427	     26.36358427	      0.46764146	    -17.24673303	      6.65102568	     -6.94842344	      5.04037044	      4.30408974	     52.95411551	    -17.23060972	     -3.63268420	     92.40826564	     44.41385030	      0.00000000	      0.00000000	    -23.66700880	     -6.01799597	      6.28047692	     21.15488144	     44.94525087	      0.00000000	      0.00000000
     46.91814286	     -5.31840515	     -4.49052801	      3.60570612	      1.09622936	      0.90370090	      0.45218515	     -5.36065205	      1.28858107	    -13.76221359	     19.45376918	     19.45376918	     21.77604164	      3.08915370	     -4.37836195	     34.49273161	     -4.79970248	     -2.26709895	     27.21246443	     27.21246443	      1.31282567	    -17.57392508	      6.82345768	     -6.84547871	      4.84001419	      4.06865922	     52.01251314	    -16.93303969	     -3.47897030	     94.05840952	     44.36396886	      0.00000000	      0.00000000	    -22.89006327	     -5.79599062	      6.32572981	     21.24880236	     44.96650302	      0.00000000	      0.00000000
     46.92978571	     -5.27594579	     -4.27763480	      3.45212432	      1.09768201	      0.90505426	      0.44935671	     -4.76035716	      0.51490517	    -13.37958686	     21.78720873	     21.78720873	     19.40967604	      1.45566614	     -9.75606094	     34.06873312	     -4.48118016	     -2.14669280	     28.06680748	     28.06680748	      3.06759299	    -17.67442965	      9.00064095	     -6.97349225	      4.71202818	      5.04630173	     49.67462973	    -18.19728258	     -4.19688947	     98.23104894	     44.30233448	      0.00000000	      0.00000000	    -21.25882076	     -5.98967869	      6.30517310	     21.03491679	     45.06730032	      0.00000000	      0.00000000
     46.94142857	     -5.09582843	     -4.03009636	      3.27189574	      1.09903230	      0.90677853	      0.44645828	     -3.83338271	     -0.48690394	    -13.18333594	     25.14017538	     25.14017538	     18.30851195	      0.65622921	    -10.91715741	     33.29142339	     -4.19214173	     -2.29394171	     28.54531830	     28.54531830	      3.99183824	    -17.82446132	      8.68236776	     -7.16664975	      4.57228837	      4.58028355	     48.63823185	    -17.64484693	     -3.95400913	     98.56883671	     44.28700889	      0.00000000	      0.00000000	    -20.34371323	     -5.85763964	      6.35967902	     21.23855404	     45.08197122	      0.00000000	      0.00000000
     46.95307143	     -5.17708089	     -3.76934169	      3.13073102	      1.09997681	      0.90835379	      0.44341927	     -2.23239907	     -1.60575871	    -12.97233778	     29.06551377	     29.06551377	     16.51918807	     -0.55383160	    -12.80440375	     32.64654759	     -3.83209586	     -2.49936364	     28.68834363	     28.68834363	      4.81834913	    -17.87410138	      8.57371129	     -7.09893563	      4.46275229	      4.19703053	     47.25484253	    -17.27635922	     -3.72714060	     99.35445915	     44.25908540	      0.00000000	      0.00000000	    -19.24733490	     -5.72092753	      6.37046747	     21.59797996	     45.10933098	      0.00000000	      0.00000000
